# xmcd
# Copyright (C) 1995-1998 Ti Kan
#
# Track frame offsets:
#       150
#       11431
#       25775
#       35768
#       48981
#       62591
#       75025
#       90841
#       104195
#       118002
#       133084
#
# Disc length: 1957 seconds
#
# Revision: 0
# Processed by: cddbd v1.5.2PL0 Copyright (c) Steve Scherf et al.
# Submitted via: CD-Import v1.0
#
DISCID=8007a30b
DTITLE=Johnnie Burton - Xxxxxxxx
DYEAR=2009
DGENRE=
TTITLE0=Hello Lover
TTITLE1=Hole In The Sky
TTITLE2=Volcano
TTITLE3=Red Ruber Ball
TTITLE4=Guru Ji
TTITLE5=Slow
TTITLE6=Ordinary Days
TTITLE7=These Days
TTITLE8=What Heaven's Like
TTITLE9=Mockingbird
TTITLE10=Too Sweet Too Taste
EXTD=
EXTT0=
EXTT1=
EXTT2=
EXTT3=
EXTT4=
EXTT5=
EXTT6=
EXTT7=
EXTT8=
EXTT9=
EXTT10=
PLAYORDER=
